<svg version="1.0" xmlns="http://www.w3.org/2000/svg"
 fill="#ffffff" width="24px" height="24px" viewBox="0 0 200.000000 200.000000"
 preserveAspectRatio="xMidYMid meet">

<g transform="translate(0.000000,200.000000) scale(0.100000,-0.100000)"
 stroke="none">
<path d="M913 1760 c-259 -28 -491 -195 -603 -435 -54 -115 -72 -199 -72 -330
1 -177 50 -318 160 -463 213 -282 617 -375 940 -216 196 96 348 284 402 498
27 107 27 264 0 372 -11 43 -39 118 -63 166 l-44 87 67 -6 c75 -6 100 7 100
56 0 48 -23 58 -189 80 -216 29 -206 40 -215 -212 -5 -136 -5 -139 19 -163 31
-30 50 -30 80 1 22 21 25 33 25 96 0 87 11 83 59 -20 172 -373 -43 -807 -445
-897 -97 -21 -242 -15 -327 15 -203 71 -347 215 -418 418 -30 85 -36 230 -15
327 42 188 169 352 337 435 85 42 191 71 264 71 52 0 85 23 85 58 0 15 -4 32
-8 38 -8 13 -47 35 -59 33 -4 -1 -40 -5 -80 -9z"/>
</g>
</svg>
