<svg version="1.0" xmlns="http://www.w3.org/2000/svg" fill="#ffffff"
 width="36px" height="36px" viewBox="0 0 200.000000 200.000000"
 preserveAspectRatio="xMidYMid meet">

<g transform="translate(0.000000,200.000000) scale(0.100000,-0.100000)"
fill="activeColor" stroke="none">
<path d="M71 1982 c-64 -34 -71 -63 -71 -273 0 -158 2 -189 16 -200 11 -9 20
-10 32 -2 15 9 17 36 20 199 2 156 5 191 19 206 14 15 38 18 206 20 164 3 191
5 200 20 8 12 7 21 -2 32 -11 14 -42 16 -200 16 -161 0 -191 -2 -220 -18z"/>
<path d="M1509 1984 c-9 -11 -10 -20 -2 -32 9 -15 36 -17 200 -20 168 -2 192
-5 206 -20 14 -15 17 -50 19 -206 3 -163 5 -190 20 -199 12 -8 21 -7 32 2 14
11 16 42 16 200 0 286 -5 291 -291 291 -158 0 -189 -2 -200 -16z"/>
<path d="M915 1864 c-259 -36 -369 -126 -391 -320 -6 -46 7 -159 22 -198 3 -9
-4 -16 -20 -20 -35 -9 -59 -58 -54 -112 l3 -44 -229 -2 c-201 -3 -230 -5 -239
-20 -8 -12 -7 -21 2 -32 12 -14 47 -16 256 -16 265 0 255 2 255 -59 0 -32 31
-77 60 -86 11 -3 21 -19 25 -38 13 -65 36 -125 55 -142 21 -19 24 -52 14 -115
l-6 -35 -166 -50 c-91 -28 -179 -59 -196 -70 -50 -33 -69 -78 -74 -171 -4 -78
-3 -84 21 -108 l26 -26 721 0 721 0 26 26 c24 24 25 30 21 108 -5 93 -24 138
-74 171 -17 11 -105 42 -196 69 l-166 49 -6 36 c-10 64 -7 97 14 116 19 17 42
77 55 142 4 19 14 35 25 38 29 9 60 54 60 86 0 61 -10 59 255 59 209 0 244 2
256 16 9 11 10 20 2 32 -9 15 -38 17 -239 20 l-229 2 3 44 c5 54 -19 103 -54
112 -22 6 -25 10 -19 33 3 14 9 71 12 126 4 86 2 108 -17 157 -38 101 -122
168 -256 203 -57 15 -227 26 -279 19z m298 -94 c128 -40 203 -147 195 -277
l-3 -48 -26 56 c-15 31 -43 72 -63 92 -48 49 -83 49 -134 2 -50 -45 -142 -70
-220 -60 -69 9 -97 21 -145 62 -69 61 -132 32 -192 -90 l-35 -72 0 66 c0 36 7
86 16 111 29 88 124 156 244 177 92 16 285 6 363 -19z m-442 -226 c7 -8 36
-28 63 -42 47 -25 61 -27 166 -27 102 0 120 3 160 24 25 13 55 32 67 44 22 20
23 20 44 1 12 -10 27 -30 34 -44 23 -45 55 -153 55 -186 0 -38 22 -55 62 -47
36 7 52 -22 37 -66 l-11 -31 -449 0 -449 0 -11 27 c-16 42 4 77 39 70 41 -8
51 3 63 68 15 80 45 159 76 195 28 34 35 36 54 14z m649 -473 c0 -36 -23 -61
-56 -61 -25 0 -27 -5 -39 -88 -10 -78 -28 -106 -94 -148 -34 -21 -84 -58 -111
-81 -88 -75 -152 -75 -240 0 -27 23 -77 60 -111 81 -66 42 -84 70 -94 148 -12
83 -14 88 -39 88 -33 0 -56 25 -56 61 l0 29 420 0 420 0 0 -29z m-586 -428
c106 -96 226 -96 332 0 46 41 81 60 88 49 10 -17 9 -98 -2 -118 -35 -65 -129
-104 -252 -104 -123 0 -217 39 -252 104 -11 20 -12 101 -2 118 7 11 42 -8 88
-49z m-89 -166 c56 -51 126 -71 255 -71 159 0 234 31 305 126 l20 26 160 -49
c198 -61 215 -74 215 -174 l0 -65 -700 0 -700 0 0 65 c0 100 17 113 215 174
l160 49 20 -26 c11 -15 33 -39 50 -55z"/>
<path d="M12 488 c-8 -8 -12 -67 -12 -198 0 -285 5 -290 291 -290 158 0 189 2
200 16 9 11 10 20 2 32 -9 15 -36 17 -199 20 -157 2 -191 5 -206 19 -16 14
-18 36 -18 203 0 184 -4 210 -35 210 -6 0 -16 -5 -23 -12z"/>
<path d="M1942 488 c-8 -8 -12 -67 -12 -198 0 -167 -2 -189 -18 -203 -15 -14
-49 -17 -206 -19 -163 -3 -190 -5 -199 -20 -8 -12 -7 -21 2 -32 11 -14 42 -16
200 -16 286 0 291 5 291 290 0 184 -4 210 -35 210 -6 0 -16 -5 -23 -12z"/>
</g>
</svg>
